<?xml version="1.0" encoding="UTF-8"?>
<svg xmlns="http://www.w3.org/2000/svg" xmlns:xlink="http://www.w3.org/1999/xlink" width="36pt" height="36pt" viewBox="0 0 36 36" version="1.1">
<g id="surface1">
<path style="fill-rule:evenodd;fill:rgb(99.607843%,99.607843%,99.607843%);fill-opacity:1;stroke-width:1.417;stroke-linecap:butt;stroke-linejoin:miter;stroke:rgb(24.313725%,51.764706%,70.980392%);stroke-opacity:1;stroke-miterlimit:22.926;" d="M -341.746062 84.436937 C -332.082 84.436937 -324.246062 92.268969 -324.246062 101.936937 C -324.246062 111.601 -332.082 119.436937 -341.746062 119.436937 C -351.414031 119.436937 -359.246062 111.601 -359.246062 101.936937 C -359.246062 92.268969 -351.414031 84.436937 -341.746062 84.436937 Z M -341.746062 84.436937 " transform="matrix(1,0,0,1,359.957,-83.726)"/>
<path style=" stroke:none;fill-rule:evenodd;fill:rgb(24.313725%,51.764706%,70.980392%);fill-opacity:1;" d="M 13.90625 35.175781 C 10.066406 31.675781 10.570312 20.542969 10.953125 15.605469 C 11.402344 9.820312 13.890625 4.226562 17.453125 4.789062 C 22.738281 3.160156 25.714844 9.144531 26.105469 15.390625 C 26.433594 20.554688 27.769531 32.078125 21.796875 35.34375 C 20.617188 35.589844 19.414062 35.710938 18.210938 35.710938 C 16.757812 35.710938 15.316406 35.535156 13.910156 35.179688 Z M 13.90625 35.175781 "/>
<path style=" stroke:none;fill-rule:evenodd;fill:rgb(88.627451%,92.54902%,96.470588%);fill-opacity:1;" d="M 15.273438 16.902344 C 15.273438 16.902344 15.929688 21.480469 15.164062 22.765625 C 13.902344 24.363281 11.808594 24.824219 8.820312 26.28125 C 10.957031 31.257812 13.3125 34.214844 15.679688 35.527344 C 16.515625 35.648438 17.363281 35.707031 18.210938 35.710938 C 19.496094 35.710938 20.78125 35.566406 22.035156 35.289062 C 24.464844 33.761719 26.664062 30.652344 28.335938 26.46875 C 23.707031 23.839844 23.472656 24.011719 22.316406 22.777344 C 21.679688 22.09375 21.441406 20.359375 21.347656 16.644531 L 15.269531 16.902344 Z M 15.273438 16.902344 "/>
<path style=" stroke:none;fill-rule:evenodd;fill:rgb(73.72549%,83.529412%,92.156863%);fill-opacity:1;" d="M 15.347656 17.503906 L 21.410156 18.359375 C 21.535156 20.914062 21.785156 22.210938 22.316406 22.777344 L 22.359375 22.824219 C 18.179688 24.136719 16.136719 21.363281 15.488281 19.058594 C 15.449219 18.453125 15.390625 17.898438 15.347656 17.503906 Z M 15.347656 17.503906 "/>
<path style=" stroke:none;fill-rule:evenodd;fill:rgb(88.627451%,92.54902%,96.470588%);fill-opacity:1;" d="M 13.4375 12.464844 C 12.976562 12.464844 12.703125 13.496094 12.964844 14.492188 C 13.222656 15.488281 13.363281 16.382812 13.820312 16.382812 C 14.277344 16.386719 14.078125 15.738281 14.078125 14.574219 C 14.082031 13.410156 13.894531 12.464844 13.4375 12.464844 Z M 13.4375 12.464844 "/>
<path style=" stroke:none;fill-rule:evenodd;fill:rgb(73.72549%,83.529412%,92.156863%);fill-opacity:1;" d="M 13.578125 12.835938 C 13.375 12.8125 13.242188 13.355469 13.191406 13.636719 C 13.128906 14.105469 13.167969 14.582031 13.304688 15.035156 C 13.433594 15.34375 13.625 16.160156 13.714844 15.179688 C 13.738281 14.925781 13.609375 14.878906 13.558594 14.5625 C 13.519531 14.347656 13.585938 14.125 13.734375 13.964844 C 14.035156 13.632812 13.773438 12.863281 13.578125 12.84375 Z M 13.578125 12.835938 "/>
<path style=" stroke:none;fill-rule:evenodd;fill:rgb(88.627451%,92.54902%,96.470588%);fill-opacity:1;" d="M 23.78125 12.476562 C 24.238281 12.476562 24.507812 13.511719 24.242188 14.507812 C 23.980469 15.5 23.835938 16.394531 23.378906 16.394531 C 22.917969 16.394531 23.125 15.746094 23.128906 14.585938 C 23.132812 13.421875 23.328125 12.476562 23.78125 12.476562 Z M 23.78125 12.476562 "/>
<path style=" stroke:none;fill-rule:evenodd;fill:rgb(73.72549%,83.529412%,92.156863%);fill-opacity:1;" d="M 23.636719 12.847656 C 23.839844 12.824219 23.972656 13.367188 24.019531 13.648438 C 24.078125 14.117188 24.039062 14.59375 23.898438 15.046875 C 23.769531 15.347656 23.574219 16.171875 23.488281 15.1875 C 23.464844 14.9375 23.597656 14.886719 23.648438 14.574219 C 23.6875 14.359375 23.625 14.136719 23.472656 13.972656 C 23.179688 13.640625 23.4375 12.875 23.636719 12.851562 Z M 23.636719 12.847656 "/>
<path style=" stroke:none;fill-rule:evenodd;fill:rgb(88.627451%,92.54902%,96.470588%);fill-opacity:1;" d="M 18.585938 6.445312 C 23.804688 6.445312 23.355469 9.550781 23.34375 13.804688 C 23.332031 18.054688 20.429688 20.882812 18.496094 20.714844 C 16.75 20.652344 13.835938 18.183594 13.847656 13.933594 C 13.855469 10.683594 13.476562 8.035156 15.734375 6.960938 C 16.632812 6.578125 17.609375 6.40625 18.585938 6.445312 Z M 18.585938 6.445312 "/>
<path style=" stroke:none;fill-rule:evenodd;fill:rgb(24.313725%,51.764706%,70.980392%);fill-opacity:1;" d="M 13.816406 13 C 14.460938 10.449219 14.429688 9.644531 16.785156 7.753906 C 19.585938 10.777344 22.824219 9.746094 23.390625 13.453125 C 24.082031 12.945312 23.863281 11.671875 23.828125 11.089844 C 23.738281 8.28125 21.148438 5.238281 18.546875 5.558594 C 14.839844 6.296875 14.179688 7.398438 13.023438 11.867188 L 13.816406 13.003906 Z M 13.816406 13 "/>
<path style=" stroke:none;fill-rule:evenodd;fill:rgb(24.313725%,51.764706%,70.980392%);fill-opacity:1;" d="M 31.503906 29.589844 L 31.417969 29.132812 C 30.960938 27.742188 29.90625 26.632812 28.539062 26.101562 C 26.839844 25.277344 25.621094 24.996094 24.070312 24.09375 C 22.191406 31.855469 13.734375 29.566406 13.398438 24.132812 C 11.167969 24.945312 10.839844 25.195312 8.535156 26.089844 C 7.042969 26.628906 5.890625 27.84375 5.433594 29.363281 L 5.28125 30 C 8.59375 33.640625 13.289062 35.714844 18.210938 35.710938 C 23.324219 35.714844 28.183594 33.476562 31.503906 29.589844 Z M 31.503906 29.589844 "/>
</g>
</svg>
