<svg xmlns="http://www.w3.org/2000/svg" width="24.5" height="24.5" viewBox="0 0 24.5 24.5"><defs><style>.a{fill:none;stroke:#fff;stroke-linecap:round;stroke-linejoin:round;stroke-width:1.5px;}</style></defs><g transform="translate(-2967.25 -632.25)"><path class="a" d="M2991,646.252v-3.5l-3.025-.438a8.693,8.693,0,0,0-.933-2.253l1.829-2.449-2.478-2.478-2.449,1.829a8.7,8.7,0,0,0-2.253-.933l-.438-3.025h-3.5l-.438,3.025a8.7,8.7,0,0,0-2.253.933l-2.448-1.829-2.478,2.478,1.829,2.449a8.693,8.693,0,0,0-.933,2.253l-3.025.438v3.5l3.025.438a8.693,8.693,0,0,0,.933,2.253l-1.829,2.449,2.478,2.478,2.448-1.829a8.7,8.7,0,0,0,2.253.933l.438,3.025h3.5l.438-3.025a8.7,8.7,0,0,0,2.253-.933l2.449,1.829,2.478-2.478-1.829-2.449a8.693,8.693,0,0,0,.933-2.253Z" transform="translate(0)"/><circle class="a" cx="3.414" cy="3.414" r="3.414" transform="translate(2976.015 641.157)"/></g></svg>