<svg xmlns="http://www.w3.org/2000/svg" xmlns:xlink="http://www.w3.org/1999/xlink" width="47" height="47" viewBox="0 0 47 47"><defs><style>.a{fill:#2d9fc3;}.b,.g{fill:none;}.b{stroke:#2d9fc3;stroke-width:1.5px;}.c,.d,.e{fill:#fff;}.c{stroke:rgba(0,0,0,0);}.c,.d{opacity:0;}.d{stroke:#6e6e6e;}.f{stroke:none;}.h{filter:url(#a);}</style><filter id="a" x="0" y="0" width="47" height="47" filterUnits="userSpaceOnUse"><feOffset dy="2" input="SourceAlpha"/><feGaussianBlur stdDeviation="2.5" result="b"/><feFlood flood-opacity="0.161"/><feComposite operator="in" in2="b"/><feComposite in="SourceGraphic"/></filter></defs><g transform="translate(7.5 5.5)"><g transform="translate(-1175.705 -609)"><g transform="translate(4519 5591.295)"><g transform="translate(-3343.295 -4982.295)"><g transform="translate(0 0)"><g class="h" transform="matrix(1, 0, 0, 1, -7.5, -5.5)"><path class="a" d="M269.994,547.409a16,16,0,1,0,16,16A16.018,16.018,0,0,0,269.994,547.409Z" transform="translate(-246.49 -541.91)"/></g></g></g></g><line class="b" x2="6" y2="6" transform="translate(1194.5 616.5)"/></g><g transform="translate(7 7)"><g class="c"><rect class="f" width="18" height="18"/><rect class="g" x="0.5" y="0.5" width="17" height="17"/></g><g class="d"><rect class="f" width="18" height="18"/><rect class="g" x="0.5" y="0.5" width="17" height="17"/></g><path class="e" d="M16.5,1H1.5a.5.5,0,0,0-.5.5v7a.5.5,0,0,0,.5.5h1A.5.5,0,0,0,3,8.5V3H15V15H9.5a.5.5,0,0,0-.5.5v1a.5.5,0,0,0,.5.5h7a.5.5,0,0,0,.5-.5V1.5A.5.5,0,0,0,16.5,1Z"/><path class="e" d="M9.318,13.882A.391.391,0,0,0,9.6,14a.4.4,0,0,0,.4-.377V8.25A.25.25,0,0,0,9.75,8H4.377A.4.4,0,0,0,4,8.4a.392.392,0,0,0,.117.28L6.01,10.573,1.49,15.1a.5.5,0,0,0,0,.707h0l.707.707a.5.5,0,0,0,.707,0L7.425,11.99Z"/></g></g></svg>